# xmcd
#
# Track frame offsets: 
#        150
#        13223
#        22393
#        36027
#        47977
#        57517
#        70621
#        81016
#        92318
#        103756
#        119309
#        132867
#        146928
#        160630
#        173410
#        182613
#        199221
#        210717
#        225910
#        239322
#        249358
#        259209
#        267786
#        280062
#        297923
#
# Disc length: 4134 seconds
#
# Revision: 0
# Processed by: cddbd v1.5.2PL0 Copyright (c) Steve Scherf et al.
# Submitted via: ExactAudioCopy v1.0b3
#
DISCID=61102419
DTITLE=Various Artist - The Crooked Road - Disc B
DYEAR=2011
DGENRE=Bluegrass
TTITLE0=Ralph Stanley - What Kind Of Man
TTITLE1=Crooked Road Ramblers - Lafayette
TTITLE2=Willard Gayheart and Bobby Patterson - Fiddlin' Down In Galax
TTITLE3=Mac Traynham and Shay Garriock - Shootin Creek
TTITLE4=The Whitetop Mountaineers - Poor Sinner Fare Ye Well
TTITLE5=The Blugrass Kinsmen - I've Done It All
TTITLE6=Leigh Beamer - Sail Away Ladies
TTITLE7=Lost and Found - No Longer A Sweetheart
TTITLE8=Butch Robins - East Tennessee Blues
TTITLE9=Mountain Fling - Don't Let Your Deal Go Down
TTITLE10=Larry Sigmon and Barbara Poole - Cotton-Eyed Joe
TTITLE11=Slate Mountain Ramblers - Gray Eagle
TTITLE12=Dori Freeman - Work Song
TTITLE13=The New Harvest Boys - One Step More
TTITLE14=Reed Island Rounders - Shelvin' Rock
TTITLE15=James Bryan and Carl Jones - TaleOf The Airl'y Days
TTITLE16=Anderson - Strickland - Wrong Road Again
TTITLE17=Brandon Davis - Up In The Air
TTITLE18=Rich and The Po' Folk - Thirty Inch Coal
TTITLE19=Whitetop Mountain Band - Keep My Skillet Good And Greasy
TTITLE20=Ardetta and Tommy - My God Has Not Failed Me Yet
TTITLE21=Ron Mullennex - Sugar In My Coffee
TTITLE22=Lonesome River Band - Any Ole Time
TTITLE23=Buck Mountain Band - Nobody's Darling
TTITLE24=Dry Hill Draggers - Ducks On A Millpond
EXTD=
EXTT0=
EXTT1=
EXTT2=
EXTT3=
EXTT4=
EXTT5=
EXTT6=
EXTT7=
EXTT8=
EXTT9=
EXTT10=
EXTT11=
EXTT12=
EXTT13=
EXTT14=
EXTT15=
EXTT16=
EXTT17=
EXTT18=
EXTT19=
EXTT20=
EXTT21=
EXTT22=
EXTT23=
EXTT24=
PLAYORDER=
